<svg id="svg" xmlns="http://www.w3.org/2000/svg" xmlns:xlink="http://www.w3.org/1999/xlink" width="400" height="400" viewBox="0, 0, 400,400" version="1.1"><g id="svgg"><path id="path0" d="M203.167 3.849 C 196.016 4.306,190.959 4.782,187.393 5.333 C 186.168 5.522,184.117 5.834,182.833 6.025 C 178.157 6.724,168.489 8.674,165.500 9.522 C 154.070 12.765,150.930 13.789,144.333 16.427 C 112.937 28.980,88.929 52.178,71.644 86.667 C 62.104 105.701,57.421 120.481,53.161 145.000 C 52.859 146.742,52.467 148.917,52.291 149.833 C 50.816 157.514,51.594 161.652,55.287 165.757 C 58.993 169.877,59.243 169.078,50.297 181.705 C 46.753 186.707,44.749 189.746,40.869 196.000 C 39.447 198.292,37.092 202.042,35.636 204.333 C 25.723 219.938,21.000 228.953,21.000 232.272 C 21.000 237.542,23.946 240.153,33.667 243.497 C 47.038 248.096,47.734 248.916,45.138 257.000 C 40.574 271.208,42.395 274.493,55.601 275.876 L 57.702 276.096 54.935 276.992 C 43.107 280.824,42.231 286.327,52.357 293.183 C 57.898 296.934,58.159 297.951,55.387 305.000 C 50.862 316.508,49.613 323.400,50.814 330.228 C 53.837 347.405,71.296 353.852,99.833 348.329 C 130.775 342.341,133.130 343.841,135.679 371.167 C 136.476 379.709,137.511 386.878,138.928 393.667 L 139.519 396.500 234.426 396.584 C 297.287 396.639,329.333 396.556,329.333 396.336 C 329.333 396.153,328.001 393.340,326.374 390.085 C 312.713 362.769,308.382 337.321,311.838 304.667 C 314.288 281.521,319.028 269.558,330.987 256.333 C 333.630 253.411,337.257 249.196,341.027 244.667 C 370.295 209.497,382.324 169.453,376.521 126.500 C 374.819 113.905,370.627 98.668,366.130 88.740 C 365.692 87.772,365.333 86.893,365.333 86.787 C 365.333 86.205,359.866 75.832,357.441 71.813 C 335.746 35.856,298.125 12.410,251.833 5.996 C 250.367 5.793,248.267 5.488,247.167 5.319 C 236.002 3.598,217.008 2.964,203.167 3.849 M234.833 36.337 C 238.408 37.118,242.588 39.102,244.625 40.985 C 246.351 42.580,245.952 42.538,249.532 41.500 C 259.852 38.509,270.639 42.757,274.825 51.460 C 275.553 52.974,276.227 53.975,276.451 53.875 C 281.035 51.833,281.019 51.836,285.167 51.857 C 293.266 51.896,299.656 56.266,304.023 64.750 C 304.956 66.563,305.077 66.667,306.255 66.672 C 315.055 66.706,321.822 73.612,321.114 81.833 L 320.970 83.500 322.647 84.273 C 333.064 89.075,338.098 101.968,332.695 110.013 L 331.716 111.471 333.800 113.681 C 347.739 128.456,351.130 159.180,340.481 174.198 C 338.300 177.274,334.346 180.796,331.639 182.075 C 329.343 183.159,329.328 183.175,329.492 184.333 C 330.227 189.522,330.275 190.377,329.979 193.080 C 329.032 201.746,323.874 208.771,316.667 211.212 C 313.580 212.258,305.742 212.069,301.833 210.856 C 300.183 210.343,298.571 209.849,298.250 209.757 C 297.799 209.627,297.667 209.789,297.667 210.475 C 297.667 214.919,294.176 224.748,290.748 229.956 C 281.339 244.251,261.807 243.805,249.500 229.015 C 247.214 226.268,247.300 226.158,245.695 233.917 C 244.908 237.721,244.072 241.658,243.838 242.667 C 243.603 243.675,242.997 246.491,242.490 248.924 L 241.570 253.349 235.894 253.258 L 230.219 253.167 228.488 247.167 C 223.672 230.475,217.601 214.548,214.053 209.295 C 210.897 204.623,201.957 199.783,193.833 198.348 C 187.422 197.215,185.951 196.903,183.333 196.118 C 165.975 190.916,158.956 180.053,165.009 167.756 C 165.752 166.247,166.354 164.917,166.348 164.799 C 166.341 164.682,164.348 164.529,161.918 164.459 C 151.161 164.149,131.412 161.029,122.949 158.304 C 112.645 154.985,107.278 147.381,109.800 139.673 C 110.093 138.776,110.333 137.957,110.333 137.854 C 110.333 137.751,109.471 137.663,108.417 137.659 C 101.936 137.632,96.093 131.649,94.478 123.387 C 91.629 108.812,101.746 89.420,115.111 83.835 C 116.524 83.245,116.478 83.354,115.835 82.121 C 113.004 76.693,120.730 68.248,129.500 67.184 C 133.841 66.658,133.636 66.752,134.472 64.884 C 139.423 53.822,156.405 46.801,168.805 50.689 C 169.920 51.038,170.940 51.327,171.071 51.329 C 171.202 51.331,171.897 50.471,172.615 49.417 C 179.603 39.167,192.707 35.743,204.629 41.052 C 207.283 42.233,207.030 42.252,209.485 40.701 C 212.928 38.526,216.767 37.097,222.000 36.041 C 224.820 35.472,231.588 35.628,234.833 36.337 M185.083 94.908 C 184.034 95.038,184.000 95.092,184.000 96.604 L 184.000 98.167 186.821 98.135 C 188.445 98.116,189.563 98.232,189.454 98.407 C 189.351 98.574,189.544 98.664,189.883 98.606 C 190.239 98.545,190.465 98.676,190.417 98.917 C 190.371 99.146,190.492 99.296,190.686 99.250 C 191.098 99.153,192.063 101.642,191.844 102.239 C 191.763 102.463,191.840 102.734,192.015 102.843 C 192.212 102.965,192.281 106.550,192.194 112.187 C 192.110 117.638,192.177 121.333,192.360 121.333 C 192.529 121.333,192.667 121.492,192.667 121.686 C 192.667 121.880,192.517 121.947,192.333 121.833 C 192.150 121.720,192.000 121.861,192.000 122.147 C 192.000 122.433,192.140 122.667,192.311 122.667 C 192.482 122.667,192.555 123.042,192.471 123.500 C 192.375 124.029,192.475 124.335,192.743 124.338 C 193.035 124.342,193.011 124.446,192.667 124.672 C 192.252 124.944,192.244 125.050,192.619 125.292 C 192.913 125.481,192.988 125.846,192.833 126.333 C 192.687 126.795,192.721 127.006,192.922 126.881 C 193.222 126.696,194.186 130.252,194.107 131.250 C 194.089 131.479,194.207 131.667,194.370 131.667 C 194.533 131.667,194.667 131.958,194.667 132.314 C 194.667 132.670,194.812 133.051,194.991 133.161 C 195.169 133.271,195.617 133.992,195.987 134.764 C 196.927 136.721,198.015 138.479,198.369 138.611 C 198.532 138.672,198.667 138.944,198.667 139.214 C 198.667 139.485,198.800 139.624,198.962 139.523 C 199.358 139.279,200.061 140.154,199.747 140.501 C 199.611 140.651,199.688 140.666,199.917 140.534 C 200.146 140.402,200.333 140.453,200.333 140.647 C 200.333 140.841,200.530 141.000,200.770 141.000 C 201.011 141.000,201.567 141.335,202.006 141.744 C 202.446 142.153,202.961 142.506,203.153 142.527 C 203.344 142.548,203.696 142.588,203.936 142.616 C 204.176 142.644,204.290 142.800,204.190 142.962 C 204.089 143.125,204.193 143.251,204.420 143.243 C 205.561 143.202,206.022 143.361,205.802 143.718 C 205.660 143.947,205.709 144.013,205.924 143.881 C 206.121 143.758,206.632 143.798,207.058 143.969 C 208.361 144.490,209.145 144.763,209.624 144.860 C 210.032 144.943,211.577 145.304,214.000 145.882 C 214.458 145.991,215.396 146.153,216.083 146.242 C 216.771 146.331,217.333 146.524,217.333 146.670 C 217.333 146.817,217.633 146.859,218.000 146.763 C 218.367 146.667,218.667 146.749,218.667 146.944 C 218.667 147.149,219.160 147.251,219.833 147.186 C 220.549 147.116,221.002 147.220,221.005 147.453 C 221.008 147.662,221.156 147.608,221.333 147.333 C 221.511 147.058,221.659 147.000,221.662 147.204 C 221.664 147.408,222.004 147.538,222.417 147.493 L 223.167 147.411 223.096 154.789 C 223.056 158.847,222.954 162.628,222.869 163.192 C 222.589 165.036,220.328 168.259,219.233 168.376 C 219.013 168.399,218.458 168.474,218.000 168.543 C 217.542 168.611,216.826 168.686,216.411 168.708 C 215.995 168.731,215.563 168.897,215.452 169.077 C 215.332 169.272,215.136 169.222,214.969 168.952 C 214.740 168.585,214.560 168.579,214.015 168.917 C 213.241 169.396,212.886 169.454,213.129 169.060 C 213.222 168.910,212.856 168.852,212.316 168.931 C 211.421 169.063,211.333 169.191,211.333 170.374 L 211.333 171.672 229.250 171.586 L 247.167 171.500 247.268 170.290 C 247.361 169.173,247.293 169.070,246.369 168.934 C 245.819 168.853,245.444 168.910,245.537 169.060 C 245.630 169.210,245.472 169.333,245.186 169.333 C 244.901 169.333,244.667 169.183,244.667 169.000 C 244.667 168.520,243.754 168.589,243.553 169.083 C 243.422 169.406,243.311 169.396,243.063 169.041 C 242.886 168.788,242.585 168.678,242.394 168.796 C 242.202 168.914,241.964 168.879,241.864 168.717 C 241.764 168.555,241.304 168.495,240.841 168.584 C 240.360 168.676,240.000 168.590,240.000 168.383 C 240.000 168.184,239.793 168.100,239.539 168.198 C 239.286 168.295,238.664 167.990,238.157 167.521 C 237.651 167.051,237.370 166.662,237.535 166.656 C 237.699 166.649,237.518 166.381,237.132 166.058 C 236.435 165.476,235.592 163.443,235.519 162.167 C 235.498 161.800,235.353 161.296,235.197 161.046 C 235.026 160.771,235.068 160.497,235.305 160.351 C 235.587 160.177,235.668 158.342,235.598 153.749 C 235.544 150.250,235.553 147.441,235.618 147.506 C 235.682 147.571,236.103 147.484,236.553 147.313 C 237.090 147.109,237.301 147.116,237.166 147.334 C 237.053 147.517,237.120 147.667,237.314 147.667 C 237.508 147.667,237.667 147.547,237.667 147.400 C 237.667 147.253,238.004 147.111,238.417 147.084 C 239.360 147.022,241.472 146.730,241.583 146.646 C 241.629 146.612,241.817 146.546,242.000 146.500 C 242.183 146.454,242.371 146.388,242.417 146.352 C 242.499 146.288,243.620 146.097,245.097 145.896 C 245.518 145.838,246.018 145.695,246.209 145.577 C 246.401 145.458,247.107 145.325,247.779 145.279 C 248.450 145.234,249.000 145.089,249.000 144.957 C 249.000 144.639,252.379 143.656,252.728 143.871 C 252.878 143.964,253.000 143.899,253.000 143.727 C 253.000 143.385,254.795 142.556,255.536 142.556 C 255.791 142.556,255.926 142.481,255.835 142.390 C 255.744 142.299,256.427 141.715,257.353 141.091 C 258.280 140.467,259.120 139.743,259.220 139.480 C 259.321 139.218,259.500 139.062,259.618 139.134 C 259.737 139.205,260.027 139.054,260.263 138.798 C 260.500 138.543,260.603 138.333,260.494 138.333 C 260.384 138.333,261.008 137.406,261.880 136.273 C 262.752 135.140,263.287 134.322,263.070 134.457 C 262.807 134.619,262.741 134.528,262.872 134.186 C 262.981 133.902,263.227 133.768,263.420 133.887 C 263.622 134.012,263.671 133.943,263.536 133.725 C 263.408 133.517,263.488 133.007,263.714 132.590 C 263.941 132.174,264.155 131.608,264.190 131.333 C 264.225 131.058,264.497 130.177,264.794 129.375 C 265.091 128.573,265.333 127.635,265.333 127.291 C 265.333 126.948,265.521 126.664,265.750 126.662 C 266.057 126.658,266.047 126.581,265.714 126.370 C 265.420 126.183,265.384 126.008,265.611 125.868 C 265.802 125.750,265.902 125.356,265.832 124.993 C 265.762 124.630,265.827 124.333,265.976 124.333 C 266.125 124.333,266.221 123.724,266.189 122.979 C 266.157 122.235,266.251 121.551,266.398 121.460 C 266.796 121.214,266.724 119.667,266.315 119.667 C 265.672 119.667,266.243 102.397,266.928 101.127 C 267.138 100.739,267.210 100.321,267.088 100.199 C 266.771 99.882,268.607 98.257,269.004 98.502 C 269.185 98.614,269.333 98.561,269.333 98.385 C 269.333 98.201,270.472 98.087,272.000 98.119 L 274.667 98.175 274.667 96.624 C 274.667 95.106,274.643 95.070,273.523 94.939 C 272.855 94.861,272.461 94.937,272.576 95.122 C 272.694 95.314,272.456 95.336,271.969 95.176 C 270.719 94.768,268.046 94.575,267.409 94.847 C 267.092 94.982,266.608 95.125,266.333 95.165 C 262.937 95.657,260.001 96.563,259.563 97.254 C 259.414 97.489,259.148 97.591,258.971 97.482 C 258.795 97.373,258.691 97.410,258.742 97.565 C 258.792 97.720,258.496 98.209,258.083 98.653 C 257.671 99.096,257.333 99.665,257.333 99.916 C 257.333 100.167,257.180 100.278,256.992 100.162 C 256.804 100.045,256.672 100.074,256.698 100.225 C 256.816 100.905,256.633 101.655,256.250 102.060 C 256.021 102.302,255.797 103.090,255.753 103.812 C 255.708 104.533,255.483 105.244,255.253 105.390 C 255.022 105.537,254.951 105.659,255.095 105.662 C 255.239 105.664,255.186 105.986,254.977 106.376 C 254.681 106.929,254.697 107.148,255.049 107.371 C 255.301 107.531,255.338 107.659,255.132 107.662 C 254.924 107.664,254.789 108.172,254.822 108.833 C 254.854 109.475,254.778 110.000,254.653 110.000 C 254.528 110.000,254.469 110.404,254.523 110.897 C 254.578 111.390,254.467 112.083,254.278 112.437 C 254.032 112.897,254.038 113.016,254.300 112.854 C 254.502 112.729,254.667 112.786,254.667 112.980 C 254.667 113.174,254.517 113.333,254.333 113.333 C 253.854 113.333,253.922 114.246,254.417 114.447 C 254.737 114.577,254.726 114.691,254.367 114.942 C 254.037 115.172,253.951 115.693,254.074 116.717 C 254.170 117.514,254.155 119.615,254.041 121.385 C 253.927 123.156,253.946 124.534,254.083 124.449 C 254.498 124.192,254.364 125.169,253.925 125.608 C 253.603 125.931,253.609 126.165,253.956 126.720 C 254.259 127.205,254.284 127.491,254.038 127.643 C 253.833 127.770,253.738 128.531,253.815 129.432 C 253.889 130.294,253.816 131.000,253.652 131.000 C 253.488 131.000,253.441 131.227,253.548 131.504 C 253.654 131.782,253.576 132.208,253.374 132.452 C 253.171 132.695,253.113 133.002,253.243 133.132 C 253.374 133.263,253.260 133.509,252.990 133.680 C 252.669 133.883,252.641 133.992,252.910 133.995 C 253.176 133.998,253.042 134.498,252.529 135.417 C 252.094 136.196,251.760 136.945,251.786 137.082 C 251.850 137.418,250.022 139.333,249.638 139.333 C 249.471 139.333,249.333 139.547,249.333 139.807 C 249.333 140.068,248.822 140.451,248.196 140.657 C 247.571 140.863,246.975 141.251,246.872 141.519 C 246.769 141.787,246.569 141.981,246.426 141.949 C 246.283 141.918,245.742 142.068,245.222 142.282 C 244.702 142.496,244.153 142.594,244.000 142.500 C 243.848 142.406,243.672 142.484,243.609 142.674 C 243.545 142.864,243.045 143.052,242.497 143.093 C 241.949 143.133,241.425 143.259,241.333 143.372 C 241.242 143.485,240.792 143.682,240.333 143.810 C 239.698 143.988,239.619 143.960,240.000 143.694 C 240.307 143.479,240.347 143.342,240.103 143.338 C 239.885 143.336,239.612 143.486,239.497 143.672 C 239.381 143.858,239.148 143.925,238.977 143.819 C 238.806 143.714,238.664 143.824,238.662 144.064 C 238.658 144.381,238.568 144.363,238.333 144.000 C 238.156 143.725,238.008 143.655,238.005 143.844 C 238.002 144.033,237.475 144.183,236.834 144.177 L 235.667 144.167 235.667 125.245 C 235.667 110.690,235.571 106.169,235.250 105.652 C 234.921 105.120,234.919 104.926,235.244 104.724 C 235.470 104.583,235.590 104.136,235.512 103.731 C 235.242 102.327,237.113 99.409,238.410 99.212 C 238.643 99.177,239.021 99.031,239.250 98.888 C 239.479 98.744,239.817 98.720,240.000 98.833 C 240.183 98.947,240.333 98.899,240.333 98.727 C 240.333 98.555,240.786 98.453,241.339 98.500 C 241.891 98.547,242.423 98.457,242.521 98.300 C 242.618 98.142,242.987 98.194,243.340 98.415 C 243.843 98.729,244.072 98.728,244.392 98.408 C 244.616 98.184,244.957 98.002,245.150 98.005 C 245.342 98.008,245.275 98.172,245.000 98.370 C 244.584 98.669,244.603 98.696,245.111 98.531 C 245.446 98.422,245.867 98.333,246.045 98.333 C 246.225 98.333,246.324 97.561,246.267 96.583 L 246.167 94.833 229.333 94.833 L 212.500 94.833 212.399 96.583 C 212.343 97.561,212.441 98.333,212.622 98.333 C 212.800 98.333,213.220 98.422,213.556 98.531 C 214.064 98.696,214.083 98.669,213.667 98.370 C 213.392 98.172,213.324 98.008,213.517 98.005 C 213.709 98.002,214.050 98.184,214.275 98.408 C 214.597 98.731,214.822 98.730,215.342 98.405 C 215.704 98.179,216.000 98.128,216.000 98.292 C 216.000 98.455,216.412 98.600,216.917 98.614 C 217.421 98.628,218.208 98.708,218.667 98.792 C 219.125 98.876,219.650 98.957,219.833 98.973 C 221.237 99.091,223.205 102.279,223.143 104.333 C 223.124 104.975,223.084 114.235,223.054 124.910 L 223.000 144.320 221.917 144.149 C 221.321 144.055,220.458 143.923,220.000 143.855 C 219.542 143.788,219.167 143.709,219.167 143.680 C 219.167 143.651,218.642 143.585,218.000 143.534 C 216.421 143.407,212.000 141.982,212.000 141.601 C 212.000 141.432,211.850 141.387,211.667 141.500 C 211.483 141.613,211.333 141.538,211.333 141.333 C 211.333 141.128,211.197 141.045,211.030 141.148 C 210.864 141.251,210.348 140.885,209.885 140.334 C 209.422 139.784,208.875 139.333,208.669 139.333 C 208.463 139.333,208.387 139.183,208.500 139.000 C 208.613 138.817,208.510 138.666,208.270 138.664 C 207.753 138.662,206.431 136.785,206.276 135.833 C 206.216 135.467,205.966 134.955,205.721 134.697 C 205.476 134.439,205.343 133.877,205.425 133.447 C 205.507 133.018,205.463 132.667,205.326 132.667 C 205.189 132.667,204.999 132.367,204.903 132.000 C 204.808 131.633,204.861 131.333,205.023 131.333 C 205.185 131.333,205.200 130.996,205.056 130.583 C 204.913 130.171,204.818 129.383,204.846 128.833 C 204.873 128.283,204.822 127.700,204.733 127.537 C 204.643 127.373,204.570 124.556,204.570 121.277 C 204.571 117.997,204.443 115.234,204.286 115.137 C 204.129 115.040,204.000 114.811,204.000 114.627 C 204.000 114.444,204.150 114.386,204.332 114.499 C 204.548 114.633,204.561 114.432,204.370 113.929 C 204.208 113.502,204.123 112.710,204.183 112.169 C 204.242 111.627,204.113 110.964,203.896 110.695 C 203.580 110.304,203.591 110.260,203.952 110.478 C 204.307 110.691,204.348 110.578,204.144 109.958 C 204.001 109.523,203.880 108.829,203.875 108.417 C 203.870 108.004,203.760 107.667,203.629 107.667 C 203.499 107.667,203.435 107.404,203.486 107.083 C 203.538 106.763,203.491 106.350,203.382 106.167 C 203.273 105.983,203.140 105.458,203.086 105.000 C 203.033 104.542,202.755 103.533,202.470 102.758 C 202.184 101.983,202.046 101.196,202.162 101.008 C 202.278 100.820,202.206 100.667,202.002 100.667 C 201.799 100.667,201.479 100.227,201.291 99.689 C 201.104 99.151,200.582 98.469,200.131 98.174 C 199.679 97.878,199.415 97.472,199.541 97.267 C 199.673 97.053,199.619 96.990,199.412 97.118 C 199.215 97.240,198.835 97.120,198.567 96.852 C 198.299 96.584,197.987 96.458,197.873 96.571 C 197.760 96.685,197.667 96.635,197.667 96.460 C 197.667 96.285,197.331 96.117,196.922 96.086 C 196.512 96.055,196.134 95.902,196.082 95.746 C 196.030 95.590,195.540 95.494,194.994 95.531 C 194.447 95.569,194.000 95.478,194.000 95.330 C 194.000 95.181,193.737 95.101,193.417 95.153 C 193.096 95.205,192.553 95.101,192.210 94.923 C 191.771 94.696,191.653 94.709,191.813 94.967 C 191.937 95.168,191.880 95.333,191.686 95.333 C 191.492 95.333,191.333 95.170,191.333 94.970 C 191.333 94.584,188.197 94.704,186.667 95.149 C 186.026 95.335,185.949 95.309,186.333 95.034 C 186.608 94.838,186.683 94.699,186.500 94.725 C 186.317 94.752,185.679 94.834,185.083 94.908 " stroke="none" fill="#048dcc" fill-rule="evenodd"></path><path id="path1" d="M186.333 95.000 C 185.889 95.287,185.889 95.323,186.333 95.323 C 186.608 95.323,187.058 95.178,187.333 95.000 C 187.778 94.713,187.778 94.677,187.333 94.677 C 187.058 94.677,186.608 94.822,186.333 95.000 M271.333 95.000 C 271.990 95.424,272.762 95.424,272.500 95.000 C 272.387 94.817,271.965 94.669,271.564 94.672 C 270.970 94.676,270.927 94.737,271.333 95.000 M264.333 95.287 C 264.333 95.445,264.708 95.503,265.167 95.415 C 265.625 95.327,266.000 95.198,266.000 95.128 C 266.000 95.058,265.625 95.000,265.167 95.000 C 264.708 95.000,264.333 95.129,264.333 95.287 M261.333 96.000 C 259.373 96.822,259.995 96.822,262.333 96.000 C 263.342 95.645,263.867 95.359,263.500 95.363 C 263.133 95.367,262.158 95.654,261.333 96.000 M199.500 97.667 C 201.132 98.964,201.516 98.964,200.000 97.667 C 199.358 97.118,198.700 96.668,198.537 96.667 C 198.375 96.667,198.808 97.117,199.500 97.667 M258.430 97.770 C 257.674 98.519,255.996 101.570,256.012 102.167 C 256.017 102.350,256.444 101.650,256.961 100.610 C 257.477 99.571,258.335 98.338,258.867 97.871 C 259.398 97.403,259.683 97.025,259.500 97.031 C 259.317 97.036,258.835 97.369,258.430 97.770 M185.755 98.239 C 186.261 98.316,187.011 98.314,187.421 98.235 C 187.831 98.156,187.417 98.093,186.500 98.095 C 185.583 98.098,185.248 98.163,185.755 98.239 M271.083 98.239 C 271.587 98.315,272.412 98.315,272.917 98.239 C 273.421 98.162,273.008 98.100,272.000 98.100 C 270.992 98.100,270.579 98.162,271.083 98.239 M190.000 98.615 C 190.000 98.827,190.127 99.000,190.282 99.000 C 190.438 99.000,190.728 99.337,190.927 99.750 C 191.177 100.270,191.295 100.337,191.311 99.968 C 191.323 99.676,191.033 99.165,190.667 98.833 C 190.289 98.491,190.000 98.397,190.000 98.615 M236.526 100.583 C 236.125 100.982,235.308 103.086,235.486 103.264 C 235.575 103.353,235.802 103.020,235.991 102.524 C 236.180 102.028,236.489 101.332,236.679 100.978 C 237.034 100.314,236.968 100.144,236.526 100.583 M202.027 101.212 C 202.012 101.420,202.219 102.095,202.487 102.712 C 202.755 103.329,202.973 103.608,202.972 103.333 C 202.969 102.717,202.065 100.686,202.027 101.212 M255.412 103.988 C 255.225 104.728,255.188 105.333,255.332 105.333 C 255.617 105.333,256.132 103.021,255.898 102.787 C 255.819 102.708,255.600 103.248,255.412 103.988 M192.136 110.000 C 192.136 113.025,192.186 114.263,192.248 112.750 C 192.310 111.237,192.310 108.763,192.248 107.250 C 192.186 105.737,192.136 106.975,192.136 110.000 M266.210 105.417 C 265.917 106.509,265.954 119.667,266.250 119.667 C 266.387 119.667,266.551 116.292,266.613 112.167 C 266.722 104.971,266.650 103.774,266.210 105.417 M253.910 124.535 C 253.776 124.668,253.667 125.008,253.667 125.289 C 253.667 125.664,253.765 125.701,254.037 125.429 C 254.241 125.225,254.351 124.886,254.281 124.675 C 254.210 124.464,254.043 124.401,253.910 124.535 M193.029 127.189 C 192.998 127.931,193.973 131.476,194.155 131.283 C 194.216 131.219,193.994 130.117,193.662 128.833 C 193.330 127.550,193.045 126.810,193.029 127.189 M264.698 129.581 C 264.474 130.270,264.206 131.058,264.103 131.333 C 263.979 131.667,264.028 131.723,264.251 131.500 C 264.658 131.095,265.458 128.680,265.253 128.476 C 265.173 128.395,264.923 128.893,264.698 129.581 M263.333 133.333 C 262.959 134.067,262.728 134.667,262.820 134.667 C 262.911 134.667,263.293 134.067,263.667 133.333 C 264.041 132.600,264.272 132.000,264.180 132.000 C 264.089 132.000,263.707 132.600,263.333 133.333 M195.222 134.050 C 196.062 135.796,197.062 137.383,197.221 137.223 C 197.301 137.143,196.984 136.515,196.516 135.826 C 196.049 135.137,195.667 134.388,195.667 134.161 C 195.667 133.934,195.446 133.565,195.176 133.341 C 194.771 133.005,194.779 133.130,195.222 134.050 M205.362 133.500 C 205.352 133.867,205.489 134.392,205.667 134.667 C 206.095 135.329,206.095 134.497,205.667 133.500 L 205.380 132.833 205.362 133.500 M206.333 136.174 C 206.333 136.603,207.794 138.662,208.100 138.664 C 208.247 138.666,207.953 138.104,207.447 137.417 C 206.941 136.729,206.483 136.104,206.430 136.028 C 206.377 135.951,206.333 136.017,206.333 136.174 M261.189 137.167 C 260.700 137.808,260.420 138.331,260.566 138.329 C 260.713 138.327,261.172 137.802,261.586 137.163 C 262.557 135.664,262.333 135.667,261.189 137.167 M250.506 138.242 C 249.834 139.048,249.726 139.301,250.172 139.019 C 250.925 138.545,252.168 136.988,251.766 137.024 C 251.620 137.037,251.053 137.585,250.506 138.242 M259.224 139.472 C 259.118 139.747,258.199 140.525,257.182 141.200 C 255.029 142.630,254.750 143.037,256.659 141.964 C 258.113 141.147,259.892 139.448,259.600 139.156 C 259.499 139.054,259.329 139.196,259.224 139.472 M199.000 139.655 C 199.000 139.832,199.338 140.154,199.750 140.370 C 200.496 140.762,200.497 140.760,199.865 140.049 C 199.160 139.254,199.000 139.181,199.000 139.655 M209.975 140.452 C 210.849 141.405,211.000 141.492,211.000 141.038 C 211.000 140.876,210.588 140.479,210.083 140.157 L 209.167 139.571 209.975 140.452 M201.147 141.511 C 201.503 141.780,201.944 142.000,202.127 142.000 C 202.311 142.000,202.170 141.780,201.814 141.511 C 201.458 141.241,201.017 141.021,200.833 141.021 C 200.650 141.021,200.791 141.241,201.147 141.511 M212.000 141.624 C 212.000 141.887,214.310 142.801,214.498 142.613 C 214.561 142.550,214.025 142.248,213.306 141.941 C 212.588 141.634,212.000 141.492,212.000 141.624 M244.833 142.178 C 243.996 142.582,243.969 142.627,244.667 142.459 C 245.125 142.349,245.642 142.125,245.817 141.963 C 246.249 141.559,246.011 141.611,244.833 142.178 M203.167 142.562 C 203.580 142.966,207.059 144.385,207.227 144.218 C 207.294 144.150,206.558 143.761,205.591 143.352 C 203.021 142.264,202.784 142.187,203.167 142.562 M215.500 143.000 C 215.867 143.158,216.392 143.286,216.667 143.286 C 216.982 143.286,216.920 143.181,216.500 143.000 C 216.133 142.842,215.608 142.714,215.333 142.714 C 215.018 142.714,215.080 142.819,215.500 143.000 M242.167 143.000 C 241.746 143.181,241.685 143.286,242.000 143.286 C 242.275 143.286,242.800 143.158,243.167 143.000 C 243.587 142.819,243.648 142.714,243.333 142.714 C 243.058 142.714,242.533 142.842,242.167 143.000 M253.667 143.167 C 253.208 143.429,252.983 143.643,253.167 143.643 C 253.350 143.643,253.875 143.429,254.333 143.167 C 254.792 142.905,255.017 142.690,254.833 142.690 C 254.650 142.690,254.125 142.905,253.667 143.167 M250.555 144.229 C 249.669 144.500,249.022 144.799,249.117 144.895 C 249.300 145.078,252.667 144.046,252.667 143.807 C 252.667 143.612,252.396 143.666,250.555 144.229 M209.538 144.979 C 209.973 145.375,214.663 146.448,214.905 146.206 C 215.018 146.093,214.936 146.000,214.722 146.000 C 214.229 146.000,214.425 146.043,211.630 145.324 C 210.317 144.986,209.376 144.831,209.538 144.979 M244.333 146.000 C 243.647 146.220,243.617 146.272,244.167 146.295 C 244.533 146.310,245.058 146.178,245.333 146.000 C 245.917 145.623,245.512 145.623,244.333 146.000 M215.333 146.462 C 215.333 146.533,215.783 146.657,216.333 146.738 C 216.883 146.818,217.333 146.761,217.333 146.609 C 217.333 146.457,216.883 146.333,216.333 146.333 C 215.783 146.333,215.333 146.391,215.333 146.462 M222.389 163.983 C 222.194 164.542,222.106 165.000,222.192 165.000 C 222.417 165.000,223.046 163.268,222.881 163.103 C 222.806 163.028,222.584 163.424,222.389 163.983 M219.000 168.020 C 218.358 168.358,217.951 168.642,218.094 168.651 C 218.502 168.676,220.667 167.722,220.667 167.517 C 220.667 167.232,220.266 167.353,219.000 168.020 " stroke="none" fill="#048dcc" fill-rule="evenodd"></path></g></svg>